<svg 
 xmlns="http://www.w3.org/2000/svg"
 xmlns:xlink="http://www.w3.org/1999/xlink"
 width="356.5px" height="144.5px">
    <g fill="none" fill-rule="evenodd" stroke="currentColor" stroke-width="1" class="lines">
        <path fill-rule="evenodd"  stroke="black" stroke-width="1px" stroke-linecap="butt" stroke-linejoin="miter"
         d="M353.722,62.957 C344.322,73.756 322.523,95.356 310.723,103.356 C306.323,106.356 301.523,107.156 296.523,106.356 C291.523,105.556 286.523,102.156 287.923,94.756 C288.923,89.956 289.923,85.156 291.523,80.356 C295.923,67.156 301.523,54.557 307.923,42.157 C308.723,40.957 309.323,39.557 310.523,37.157 C308.923,38.157 308.123,38.557 307.723,39.157 C302.123,44.957 296.723,51.157 291.123,56.957 C287.723,60.557 284.323,64.357 280.723,67.557 C278.523,69.357 275.724,70.756 273.124,71.956 C270.724,72.956 268.124,72.956 265.724,71.956 C263.724,71.156 263.124,70.156 263.324,68.156 C263.524,66.357 263.924,64.557 264.724,62.957 C268.524,54.157 272.324,45.557 276.123,37.157 C278.323,32.357 280.723,27.957 283.123,23.357 C283.523,22.557 283.723,21.557 284.123,20.757 L283.523,20.357 L281.123,23.157 C272.524,33.157 265.524,44.157 258.524,55.157 C248.324,71.156 238.324,87.356 228.324,103.556 C225.924,107.556 223.524,111.356 220.924,115.356 C218.524,119.156 214.724,120.356 210.724,118.756 C208.725,118.156 207.725,116.956 207.525,114.756 C207.525,111.756 208.125,108.956 209.325,106.156 L218.924,80.156 C223.324,68.357 227.724,56.557 232.524,44.957 C236.724,34.957 241.324,25.357 245.924,15.557 C247.324,12.557 248.124,12.357 251.924,13.957 C252.324,15.957 251.524,17.957 250.724,19.957 L239.924,51.357 C236.524,61.357 233.124,71.156 229.924,81.156 C229.724,81.556 229.724,81.956 229.724,83.356 C230.924,81.756 231.924,80.756 232.524,79.556 C242.724,63.557 253.524,48.157 264.924,33.157 C269.724,26.757 275.323,21.157 280.523,15.157 C282.723,12.557 285.523,11.557 288.923,11.957 C291.923,12.357 293.523,14.157 292.923,17.157 C292.523,19.557 291.523,21.957 290.723,24.157 L276.323,58.557 C275.924,59.357 275.724,60.157 275.124,61.957 C276.724,60.557 277.723,59.957 278.723,59.157 L308.123,31.157 C310.123,29.357 312.123,27.557 314.323,26.157 C315.523,25.157 317.123,24.357 318.723,24.357 C322.723,23.957 324.723,25.757 324.123,29.357 C323.323,33.357 322.723,37.357 321.323,40.957 C317.923,51.157 313.923,61.157 310.323,71.356 C308.123,77.356 305.723,83.356 303.723,89.356 C302.923,91.956 302.323,94.556 301.723,97.156 C301.523,97.956 301.923,98.956 302.123,100.156 C305.123,99.356 307.123,97.556 309.123,95.956 C317.923,88.556 338.523,69.556 347.522,62.157 C348.322,61.357 349.122,60.557 350.122,59.957 C351.522,58.957 351.922,58.957 355.122,59.957 C354.522,60.957 354.322,62.157 353.722,62.957 ZM192.927,41.357 C185.727,59.957 179.527,78.956 174.127,98.156 C171.727,106.756 168.927,114.956 166.527,123.356 C164.927,128.356 163.527,133.555 162.127,138.555 C161.927,139.755 161.527,140.755 160.927,142.555 C159.527,142.755 158.127,143.155 156.927,143.155 C154.527,142.955 153.527,141.955 153.127,139.355 C153.127,137.955 152.927,136.755 152.927,135.355 C152.727,118.156 154.727,101.156 159.727,84.556 C162.927,73.756 166.527,63.157 170.727,52.557 C171.127,51.357 171.527,50.157 171.127,48.557 C169.527,50.357 167.927,52.157 166.127,53.957 C161.527,58.757 156.327,62.757 150.127,65.357 C145.127,67.357 139.927,68.557 134.527,67.357 C128.527,66.157 125.728,63.157 124.528,57.357 C123.328,52.557 123.928,47.757 124.728,42.957 C126.528,32.357 129.927,22.157 134.527,12.357 C134.927,11.357 135.327,10.557 136.127,9.757 C137.527,8.357 139.327,8.357 141.127,9.757 C141.927,11.557 141.127,13.557 140.527,15.357 C138.727,23.757 136.527,32.157 135.127,40.557 C134.327,44.557 134.327,48.757 134.327,52.957 C134.327,54.957 134.927,57.157 135.727,59.157 C137.127,62.557 138.727,63.157 141.927,61.757 C144.327,60.757 146.927,59.557 148.727,57.757 C153.527,53.757 158.327,49.557 162.527,44.957 C171.127,35.957 179.127,26.557 187.527,17.357 C189.927,14.557 194.326,13.557 197.726,15.157 C199.126,15.757 200.126,16.757 199.926,18.157 C199.926,19.957 199.726,21.957 199.126,23.557 C197.326,29.557 195.326,35.557 192.927,41.357 ZM111.727,26.157 C103.327,40.757 92.128,53.157 79.328,64.157 C78.128,65.157 76.928,66.357 75.128,67.956 C77.528,68.156 79.128,68.156 80.728,68.156 C84.528,68.156 88.328,68.557 91.927,69.956 C97.327,71.956 99.527,74.956 98.727,80.556 C97.927,84.556 96.927,88.756 95.327,92.356 C88.928,106.156 78.528,115.956 64.728,122.156 C59.728,124.556 54.328,125.356 48.728,124.756 C41.928,123.956 39.128,120.556 40.928,113.956 C42.328,108.556 44.528,103.156 46.528,97.956 C47.128,96.156 48.528,94.556 49.728,93.156 C51.128,91.756 52.728,90.556 55.328,91.356 C51.728,98.356 50.328,105.956 50.328,113.756 C50.328,115.556 50.928,117.556 51.328,119.756 C52.728,119.356 53.728,119.356 54.528,119.156 C56.328,118.356 58.328,117.556 59.928,116.556 C71.928,109.156 80.928,99.356 85.728,86.156 C86.528,83.956 87.128,81.556 87.528,79.356 C87.928,75.156 85.928,73.156 81.928,72.956 C79.128,72.956 76.528,73.156 73.928,73.556 C71.728,73.756 69.728,74.356 67.528,74.556 C65.528,74.556 63.328,74.556 61.728,72.556 C61.928,70.156 63.728,69.156 65.128,67.956 C73.528,60.757 80.928,52.757 87.928,44.357 C94.527,36.357 101.127,28.157 106.127,18.957 C107.527,16.157 108.727,13.157 109.727,10.357 C110.327,8.557 110.327,6.757 110.527,4.757 C108.127,4.557 106.727,5.957 105.327,6.757 C97.927,11.757 91.527,17.757 85.728,24.357 C72.928,38.757 61.128,54.157 49.928,70.156 L16.929,117.756 C16.129,118.956 15.329,119.956 14.529,120.956 C12.329,123.956 9.329,124.956 5.729,124.756 C1.929,124.356 0.729,122.956 1.529,119.156 C2.529,115.356 3.529,111.556 4.729,107.756 C14.729,79.956 26.529,52.957 41.128,27.357 C43.328,23.357 45.928,19.557 48.728,15.757 C51.728,11.957 56.928,11.357 61.328,13.557 C61.728,13.757 61.928,14.357 62.528,14.757 C62.528,16.957 61.328,18.757 60.328,20.557 C56.328,27.757 52.528,34.757 48.128,41.757 C37.728,58.157 28.128,75.156 20.929,93.356 C20.529,94.756 20.129,95.956 19.529,97.156 C19.529,97.356 19.729,97.756 19.729,98.556 C21.129,96.956 22.129,95.556 23.129,94.156 C33.128,80.756 42.728,67.357 52.928,54.357 C62.928,41.557 73.128,28.957 84.928,17.757 C89.927,13.157 95.527,8.957 101.127,4.757 C102.927,3.157 105.327,1.958 107.727,1.358 C109.327,0.758 111.527,0.758 113.527,1.158 C116.727,1.958 118.327,3.957 118.327,7.157 C118.327,9.157 118.127,11.357 117.527,13.157 C115.727,17.557 114.127,21.957 111.727,26.157 Z"/>
    </g>
</svg>